<svg width="69" height="69" viewBox="0 0 69 69" fill="none" xmlns="http://www.w3.org/2000/svg">
<g id="Frame" clip-path="url(#clip0_3801_66)">
<g id="Group">
<g id="Outline">
<path id="Vector" d="M18.3281 40.9688H12.3984C11.9698 40.9696 11.559 41.1403 11.2559 41.4434C10.9528 41.7465 10.7821 42.1573 10.7812 42.5859V56.6016C10.7821 57.0302 10.9528 57.441 11.2559 57.7441C11.559 58.0472 11.9698 58.2179 12.3984 58.2188H18.3281C18.7568 58.2179 19.1676 58.0472 19.4707 57.7441C19.7738 57.441 19.9445 57.0302 19.9453 56.6016V42.5859C19.9445 42.1573 19.7738 41.7465 19.4707 41.4434C19.1676 41.1403 18.7568 40.9696 18.3281 40.9688ZM18.3281 56.6016H12.3984V42.5859H18.3281V56.6016ZM26.6259 31.8047C26.1411 31.8057 25.6765 31.9987 25.3337 32.3415C24.9909 32.6843 24.7979 33.1489 24.7969 33.6337V56.3897C24.7979 56.8745 24.9909 57.3391 25.3337 57.6819C25.6765 58.0247 26.1411 58.2178 26.6259 58.2188H32.1319C32.6167 58.2178 33.0813 58.0247 33.4241 57.6819C33.7669 57.3391 33.9599 56.8745 33.9609 56.3897V33.6337C33.9599 33.1489 33.7669 32.6843 33.4241 32.3415C33.0813 31.9987 32.6167 31.8057 32.1319 31.8047H26.6259ZM32.3438 33.6337V56.3897C32.3438 56.4459 32.3214 56.4998 32.2817 56.5395C32.242 56.5792 32.1881 56.6016 32.1319 56.6016H26.6259C26.5697 56.6016 26.5158 56.5792 26.4761 56.5395C26.4364 56.4998 26.4141 56.4459 26.4141 56.3897V33.6337C26.4141 33.5775 26.4364 33.5237 26.4761 33.4839C26.5158 33.4442 26.5697 33.4219 26.6259 33.4219H32.1319C32.1881 33.4219 32.242 33.4442 32.2817 33.4839C32.3214 33.5237 32.3438 33.5775 32.3438 33.6337Z" fill="url(#paint0_linear_3801_66)"/>
<path id="Vector_2" d="M66.5742 61.9922H66.143C67.3491 60.2446 68.1986 58.2762 68.6428 56.1997C69.0871 54.1233 69.1172 51.9796 68.7317 49.8915C68.3461 47.8034 67.5523 45.8118 66.3959 44.031C65.2394 42.2501 63.7429 40.7149 61.9922 39.5133V10.8524C61.9915 10.2618 61.7565 9.69557 61.3388 9.27799C60.9211 8.86041 60.3549 8.62557 59.7642 8.625H55.0561C54.4655 8.62557 53.8992 8.86041 53.4815 9.27799C53.0638 9.69557 52.8288 10.2618 52.8281 10.8524V36.6562C51.1824 36.6552 49.5462 36.9062 47.9766 37.4007V25.4373C47.976 24.9102 47.7664 24.4049 47.3936 24.0321C47.0209 23.6594 46.5156 23.4498 45.9885 23.4492H40.8006C40.2735 23.4498 39.7681 23.6594 39.3954 24.0321C39.0227 24.4049 38.8131 24.9102 38.8125 25.4373V44.7761C37.2884 47.4181 36.5453 50.4382 36.6693 53.4857C36.7934 56.5331 37.7795 59.4829 39.5133 61.9922H7.00781V2.96484C7.0071 2.32171 6.7513 1.70511 6.29653 1.25035C5.84176 0.795578 5.22517 0.539776 4.58203 0.539062H2.42578C1.78264 0.539776 1.16605 0.795578 0.711283 1.25035C0.256515 1.70511 0.00071341 2.32171 0 2.96484L0 64.957C0.00114155 66.0289 0.427463 67.0566 1.18542 67.8146C1.94338 68.5725 2.97106 68.9989 4.04297 69H66.5742C67.2174 68.9993 67.8339 68.7435 68.2887 68.2887C68.7435 67.8339 68.9993 67.2174 69 66.5742V64.418C68.9993 63.7748 68.7435 63.1582 68.2887 62.7035C67.8339 62.2487 67.2174 61.9929 66.5742 61.9922ZM54.4453 10.8524C54.4456 10.6906 54.5101 10.5354 54.6245 10.421C54.739 10.3066 54.8942 10.2423 55.0561 10.2422H59.7642C59.9261 10.2423 60.0813 10.3066 60.1958 10.421C60.3103 10.5354 60.3747 10.6906 60.375 10.8524V38.5311C58.5337 37.5538 56.5196 36.9444 54.4453 36.7371V10.8524ZM40.4297 25.4373C40.4298 25.339 40.469 25.2447 40.5385 25.1752C40.608 25.1057 40.7022 25.0665 40.8006 25.0664H45.9885C46.0868 25.0665 46.1811 25.1057 46.2506 25.1752C46.3201 25.2447 46.3592 25.339 46.3594 25.4373V38.0104C44.0666 39.0172 42.0373 40.5399 40.4297 42.4598V25.4373ZM4.04297 67.3828C3.39983 67.3821 2.78324 67.1263 2.32847 66.6715C1.8737 66.2168 1.6179 65.6002 1.61719 64.957V2.96484C1.61719 2.75039 1.70238 2.54472 1.85402 2.39308C2.00566 2.24144 2.21133 2.15625 2.42578 2.15625H4.58203C4.79648 2.15625 5.00215 2.24144 5.15379 2.39308C5.30543 2.54472 5.39062 2.75039 5.39062 2.96484V62.8008C5.39062 63.0152 5.47582 63.2209 5.62746 63.3725C5.7791 63.5242 5.98477 63.6094 6.19922 63.6094H40.7871C42.1926 65.1791 43.8897 66.4607 45.7842 67.3828H4.04297ZM38.2734 52.8281C38.2734 49.9495 39.1271 47.1355 40.7263 44.742C42.3256 42.3485 44.5988 40.483 47.2583 39.3813C49.9178 38.2797 52.8443 37.9915 55.6676 38.5531C58.4909 39.1147 61.0843 40.5009 63.1198 42.5364C65.1553 44.5719 66.5415 47.1653 67.1031 49.9886C67.6647 52.812 67.3765 55.7384 66.2749 58.398C65.1733 61.0575 63.3078 63.3306 60.9143 64.9299C58.5208 66.5292 55.7068 67.3828 52.8281 67.3828C48.9693 67.3785 45.2697 65.8437 42.5411 63.1151C39.8125 60.3865 38.2777 56.687 38.2734 52.8281ZM67.3828 66.5742C67.3828 66.7887 67.2976 66.9943 67.146 67.146C66.9943 67.2976 66.7887 67.3828 66.5742 67.3828H59.8721C61.7665 66.4607 63.4637 65.1791 64.8692 63.6094H66.5742C66.7887 63.6094 66.9943 63.6946 67.146 63.8462C67.2976 63.9978 67.3828 64.2035 67.3828 64.418V66.5742Z" fill="url(#paint1_linear_3801_66)"/>
<path id="Vector_3" d="M52.8281 40.9688C50.4826 40.9688 48.1897 41.6643 46.2394 42.9674C44.2892 44.2705 42.7691 46.1227 41.8715 48.2897C40.9739 50.4568 40.739 52.8413 41.1966 55.1418C41.6542 57.4423 42.7837 59.5554 44.4423 61.214C46.1008 62.8725 48.214 64.002 50.5145 64.4596C52.815 64.9172 55.1995 64.6824 57.3665 63.7848C59.5335 62.8871 61.3857 61.3671 62.6888 59.4168C63.992 57.4666 64.6875 55.1737 64.6875 52.8281C64.6839 49.6839 63.4333 46.6695 61.21 44.4462C58.9867 42.2229 55.9723 40.9723 52.8281 40.9688ZM52.8281 63.0703C50.8024 63.0703 48.8222 62.4696 47.1379 61.3442C45.4536 60.2188 44.1408 58.6192 43.3656 56.7476C42.5904 54.8761 42.3875 52.8168 42.7827 50.83C43.1779 48.8432 44.1534 47.0182 45.5858 45.5858C47.0182 44.1534 48.8432 43.1779 50.83 42.7827C52.8168 42.3875 54.8761 42.5904 56.7476 43.3656C58.6192 44.1408 60.2188 45.4536 61.3442 47.1379C62.4696 48.8222 63.0703 50.8024 63.0703 52.8281C63.0673 55.5436 61.9873 58.147 60.0671 60.0671C58.147 61.9873 55.5436 63.0673 52.8281 63.0703Z" fill="url(#paint2_linear_3801_66)"/>
<path id="Vector_4" d="M41.3353 14.6725C41.5512 15.0466 41.8745 15.3472 42.2632 15.5354C42.652 15.7236 43.0883 15.7908 43.5157 15.7281C43.943 15.6654 44.3417 15.4758 44.66 15.1839C44.9784 14.892 45.2017 14.5112 45.3011 14.0909L46.796 7.77037C46.9372 7.16839 46.8438 6.53519 46.5346 5.99969C46.2255 5.46419 45.7238 5.06665 45.1319 4.888L38.9111 3.02069C38.4974 2.89653 38.0559 2.89948 37.6439 3.02915C37.2319 3.15882 36.8684 3.40923 36.6004 3.74794C36.3324 4.08665 36.1722 4.49805 36.1408 4.92882C36.1093 5.3596 36.2079 5.7899 36.4239 6.16396L36.5888 6.44913L15.3497 18.7128C14.7948 19.0365 14.3901 19.5663 14.2238 20.1868C14.0574 20.8074 14.1428 21.4685 14.4614 22.0264L16.6176 25.7616C16.9403 26.3178 17.4703 26.7235 18.0914 26.8898C18.7126 27.0561 19.3743 26.9694 19.9318 26.6489L41.1708 14.3857L41.3353 14.6725ZM19.121 25.2506C19.029 25.3037 18.9275 25.3383 18.8222 25.3522C18.7168 25.3661 18.6098 25.3591 18.5072 25.3316C18.4045 25.3041 18.3083 25.2567 18.224 25.192C18.1398 25.1273 18.069 25.0466 18.0159 24.9546L15.8597 21.22C15.7535 21.034 15.7251 20.8136 15.7806 20.6067C15.8362 20.3998 15.9711 20.2233 16.1562 20.1154L38.096 7.44747C38.2809 7.33944 38.4156 7.16284 38.471 6.95603C38.5265 6.74923 38.498 6.52891 38.392 6.34293L37.8243 5.35753C37.7656 5.26452 37.7372 5.15558 37.7431 5.04575C37.749 4.93593 37.7888 4.83063 37.8571 4.74441C37.9254 4.6582 38.0188 4.59531 38.1243 4.56445C38.2299 4.53358 38.3424 4.53626 38.4464 4.57211L44.6667 6.43727C44.8643 6.49637 45.0318 6.62875 45.135 6.80732C45.2382 6.98589 45.2693 7.19715 45.2219 7.39788L43.7271 13.7184C43.7024 13.8236 43.6466 13.919 43.5671 13.9922C43.4875 14.0653 43.3877 14.1129 43.2808 14.1286C43.1739 14.1444 43.0646 14.1276 42.9674 14.0805C42.8701 14.0334 42.7892 13.9581 42.7352 13.8645L42.167 12.8791C42.0591 12.6941 41.8825 12.5593 41.6757 12.5037C41.4689 12.4482 41.2485 12.4766 41.0625 12.5826L19.121 25.2506Z" fill="url(#paint3_linear_3801_66)"/>
</g>
</g>
<g id="Vector_5">
<path fill-rule="evenodd" clip-rule="evenodd" d="M52.9871 52.9243C52.1342 50.8597 50.9812 49.6985 49.6858 48.9654C47.8915 50.0854 47.0149 51.8168 47.1298 53.4748C47.392 57.2603 49.8311 58.5183 51.8908 59C50.1394 56.9644 49.2738 54.4778 49.6253 52.0634C50.8815 53.4748 51.9742 54.7358 52.9871 56.6763C53.8989 55.0447 54.9618 53.4962 56.3382 52.1151C56.738 54.4914 55.8398 56.7557 54.115 58.9483C55.8243 58.5797 58.2164 57.77 58.8086 54.0086C59.1911 51.5787 57.9214 49.9833 56.287 48.948C54.4645 49.9977 53.5899 51.4033 52.9871 52.9243Z" fill="white"/>
<path fill-rule="evenodd" clip-rule="evenodd" d="M47.6968 50.407L47.1163 49.7875C46.9332 49.5923 46.9897 49.2052 47.1246 48.9698C48.2158 47.0742 50.465 45.9625 53.0469 46.001C55.6288 46.0394 57.6312 47.0761 58.8946 49.0044C59.0441 49.2323 59.0383 49.6324 58.8533 49.8304L58.3306 50.3898C57.4412 49.4114 56.4028 48.8136 55.2698 48.4541C54.1051 49.9863 53.5712 51.7594 53.1163 53.4862C53.098 53.5558 52.964 53.6004 52.964 53.6004C52.5602 51.8322 51.9536 50.0555 50.7078 48.4707C49.6081 48.7787 48.5753 49.3874 47.6968 50.407Z" fill="white"/>
</g>
</g>
<defs>
<linearGradient id="paint0_linear_3801_66" x1="22.3711" y1="31.8047" x2="22.3711" y2="58.2188" gradientUnits="userSpaceOnUse">
<stop stop-color="#E754FF"/>
<stop offset="0.022116" stop-color="#E754FF"/>
<stop offset="1" stop-color="#50EEFF" stop-opacity="0.2"/>
</linearGradient>
<linearGradient id="paint1_linear_3801_66" x1="34.5" y1="0.539062" x2="34.5" y2="69" gradientUnits="userSpaceOnUse">
<stop stop-color="#E754FF"/>
<stop offset="0.022116" stop-color="#E754FF"/>
<stop offset="1" stop-color="#50EEFF" stop-opacity="0.2"/>
</linearGradient>
<linearGradient id="paint2_linear_3801_66" x1="52.8281" y1="40.9688" x2="52.8281" y2="64.6875" gradientUnits="userSpaceOnUse">
<stop stop-color="#E754FF"/>
<stop offset="0.022116" stop-color="#E754FF"/>
<stop offset="1" stop-color="#50EEFF" stop-opacity="0.2"/>
</linearGradient>
<linearGradient id="paint3_linear_3801_66" x1="30.5004" y1="2.92969" x2="30.5004" y2="26.9725" gradientUnits="userSpaceOnUse">
<stop stop-color="#E754FF"/>
<stop offset="0.022116" stop-color="#E754FF"/>
<stop offset="1" stop-color="#50EEFF" stop-opacity="0.2"/>
</linearGradient>
<clipPath id="clip0_3801_66">
<rect width="69" height="69" fill="white"/>
</clipPath>
</defs>
</svg>
