<svg width="69" height="69" viewBox="0 0 69 69" fill="none" xmlns="http://www.w3.org/2000/svg">
<g clip-path="url(#clip0_3801_53)">
<path d="M34.5 0C27.6766 0 21.0063 2.02339 15.3328 5.8143C9.65935 9.60521 5.23739 14.9934 2.62617 21.2974C0.0149482 27.6015 -0.668267 34.5383 0.662923 41.2306C1.99411 47.923 5.27992 54.0703 10.1048 58.8952C14.9297 63.7201 21.0771 67.0059 27.7694 68.3371C34.4617 69.6683 41.3985 68.9851 47.7026 66.3738C54.0066 63.7626 59.3948 59.3407 63.1857 53.6672C66.9766 47.9937 69 41.3235 69 34.5C68.9897 25.3532 65.3516 16.5839 58.8839 10.1162C52.4161 3.64838 43.6468 0.0102728 34.5 0ZM34.5 67.3828C27.9964 67.3828 21.6389 65.4543 16.2313 61.8411C10.8238 58.2278 6.60908 53.0923 4.12026 47.0837C1.63144 41.0752 0.980246 34.4635 2.24904 28.0849C3.51783 21.7062 6.64961 15.8471 11.2484 11.2483C15.8471 6.6496 21.7063 3.51781 28.0849 2.24902C34.4635 0.980231 41.0752 1.63142 47.0837 4.12024C53.0923 6.60907 58.2279 10.8237 61.8411 16.2313C65.4543 21.6388 67.3828 27.9964 67.3828 34.5C67.3731 43.2181 63.9056 51.5763 57.741 57.7409C51.5763 63.9056 43.2181 67.3731 34.5 67.3828Z" fill="url(#paint0_linear_3801_53)"/>
<path d="M34.4984 6.46875C28.6738 6.47635 22.9959 8.29536 18.2512 11.6737C13.5066 15.0521 9.93012 19.8225 8.01747 25.3241C7.99375 25.3759 7.97567 25.4301 7.96356 25.4858C5.97048 31.3285 5.97048 37.6672 7.96356 43.5099C7.97567 43.5656 7.99375 43.6198 8.01747 43.6716C9.92365 49.1772 13.4985 53.9518 18.2446 57.3311C22.9907 60.7104 28.6721 62.5264 34.4984 62.5264C40.3246 62.5264 46.006 60.7104 50.7521 57.3311C55.4983 53.9518 59.0731 49.1772 60.9793 43.6716C61.003 43.6198 61.0211 43.5656 61.0332 43.5099C63.0263 37.6672 63.0263 31.3285 61.0332 25.4858C61.0211 25.4301 61.003 25.3759 60.9793 25.3241C59.0666 19.8225 55.4902 15.0521 50.7455 11.6737C46.0009 8.29536 40.3229 6.47635 34.4984 6.46875ZM53.6351 28.8398H57.4085C57.5977 28.8398 57.7808 28.7734 57.926 28.6523L59.8386 27.0593C60.4715 29.2154 60.8255 31.4437 60.8919 33.6898H53.6351C53.4206 33.6898 53.215 33.775 53.0633 33.9266C52.9117 34.0783 52.8265 34.2839 52.8265 34.4984C52.8265 34.7128 52.9117 34.9185 53.0633 35.0701C53.215 35.2218 53.4206 35.307 53.6351 35.307H60.8919C60.8255 37.553 60.4715 39.7813 59.8386 41.9374L57.926 40.3445C57.7808 40.2234 57.5977 40.157 57.4085 40.1569H53.6351C53.4206 40.1569 53.215 40.2421 53.0633 40.3938C52.9117 40.5454 52.8265 40.7511 52.8265 40.9655C52.8265 41.18 52.9117 41.3856 53.0633 41.5373C53.215 41.6889 53.4206 41.7741 53.6351 41.7741H57.1158L59.2979 43.5918C57.4355 48.6711 54.0584 53.0561 49.6231 56.1539C45.1879 59.2516 39.9084 60.9128 34.4984 60.9128C29.0884 60.9128 23.8089 59.2516 19.3736 56.1539C14.9383 53.0561 11.5612 48.6711 9.6988 43.5918L11.8809 41.7773H15.3617C15.5761 41.7773 15.7818 41.6922 15.9334 41.5405C16.0851 41.3889 16.1702 41.1832 16.1702 40.9688C16.1702 40.7543 16.0851 40.5486 15.9334 40.397C15.7818 40.2453 15.5761 40.1602 15.3617 40.1602H11.5882C11.3991 40.1602 11.216 40.2266 11.0707 40.3478L9.15812 41.9391C8.52527 39.783 8.17128 37.5547 8.10479 35.3086H15.3617C15.5761 35.3086 15.7818 35.2234 15.9334 35.0718C16.0851 34.9201 16.1702 34.7145 16.1702 34.5C16.1702 34.2855 16.0851 34.0799 15.9334 33.9282C15.7818 33.7766 15.5761 33.6914 15.3617 33.6914H8.10479C8.17128 31.4453 8.52527 29.217 9.15812 27.0609L11.0707 28.6539C11.216 28.775 11.3991 28.8414 11.5882 28.8415H15.3617C15.5761 28.8415 15.7818 28.7563 15.9334 28.6046C16.0851 28.453 16.1702 28.2473 16.1702 28.0329C16.1702 27.8184 16.0851 27.6127 15.9334 27.4611C15.7818 27.3095 15.5761 27.2243 15.3617 27.2243H11.8809L9.7015 25.4049C11.5639 20.3256 14.941 15.9407 19.3763 12.8429C23.8116 9.74513 29.0911 8.08395 34.5011 8.08395C39.911 8.08395 45.1906 9.74513 49.6258 12.8429C54.0611 15.9407 57.4382 20.3256 59.3006 25.4049L57.1158 27.2227H53.6351C53.4206 27.2227 53.215 27.3078 53.0633 27.4595C52.9117 27.6111 52.8265 27.8168 52.8265 28.0312C52.8265 28.2457 52.9117 28.4514 53.0633 28.603C53.215 28.7547 53.4206 28.8398 53.6351 28.8398Z" fill="url(#paint1_linear_3801_53)"/>
<path d="M49.1895 23.6844L36.5215 16.3698C35.9065 16.0162 35.2094 15.8301 34.5 15.8301C33.7906 15.8301 33.0935 16.0162 32.4785 16.3698L19.8105 23.6844C19.1966 24.0399 18.6868 24.5505 18.332 25.1649C17.9773 25.7793 17.7901 26.4761 17.7891 27.1856V41.8125C17.7897 42.5224 17.9768 43.2197 18.3315 43.8346C18.6863 44.4495 19.1963 44.9605 19.8105 45.3164L32.4785 52.6304C33.0935 52.984 33.7906 53.1701 34.5 53.1701C35.2094 53.1701 35.9065 52.984 36.5215 52.6304L49.1895 45.3164C49.8037 44.9605 50.3137 44.4495 50.6685 43.8346C51.0233 43.2197 51.2103 42.5224 51.2109 41.8125V27.1856C51.2099 26.4761 51.0227 25.7793 50.668 25.1649C50.3132 24.5505 49.8034 24.0399 49.1895 23.6844ZM49.5938 41.8125C49.5934 42.2384 49.4811 42.6568 49.2683 43.0258C49.0554 43.3947 48.7494 43.7013 48.3809 43.9148L35.7129 51.2278C35.3439 51.4399 34.9257 51.5516 34.5 51.5516C34.0743 51.5516 33.6561 51.4399 33.2871 51.2278L20.6191 43.9138C20.2506 43.7002 19.9446 43.3936 19.7317 43.0247C19.5189 42.6557 19.4066 42.2374 19.4062 41.8114V27.1856C19.4066 26.7596 19.5189 26.3412 19.7317 25.9723C19.9446 25.6033 20.2506 25.2968 20.6191 25.0832L33.2871 17.7692C33.6561 17.5571 34.0743 17.4454 34.5 17.4454C34.9257 17.4454 35.3439 17.5571 35.7129 17.7692L48.3809 25.0832C48.7494 25.2968 49.0554 25.6033 49.2683 25.9723C49.4811 26.3412 49.5934 26.7596 49.5938 27.1856V41.8125Z" fill="url(#paint2_linear_3801_53)"/>
<path fill-rule="evenodd" clip-rule="evenodd" d="M34.4809 35.1225C33.2288 32.0915 31.5361 30.3867 29.6344 29.3105C27.0002 30.9547 25.7133 33.4965 25.8819 35.9307C26.267 41.4881 29.8477 43.3349 32.8716 44.0421C30.3004 41.0538 29.0295 37.4032 29.5456 33.8587C31.3898 35.9307 32.994 37.782 34.4809 40.6307C35.8195 38.2355 37.38 35.962 39.4006 33.9346C39.9876 37.4231 38.6689 40.7473 36.1369 43.9662C38.6462 43.4251 42.158 42.2364 43.0275 36.7143C43.589 33.147 41.7249 30.8049 39.3255 29.285C36.6499 30.826 35.366 32.8896 34.4809 35.1225Z" fill="white"/>
<path fill-rule="evenodd" clip-rule="evenodd" d="M26.7144 31.4269L25.8622 30.5175C25.5934 30.2309 25.6763 29.6625 25.8743 29.317C27.4763 26.534 30.7783 24.902 34.5688 24.9584C38.3592 25.0149 41.299 26.5369 43.1537 29.3677C43.3732 29.7023 43.3646 30.2897 43.093 30.5804L42.3257 31.4017C41.02 29.9653 39.4955 29.0876 37.8322 28.5599C36.1223 30.8093 35.3385 33.4124 34.6707 35.9474C34.6438 36.0496 34.4471 36.1151 34.4471 36.1151C33.8543 33.5192 32.9637 30.9108 31.1348 28.5842C29.5204 29.0365 28.0041 29.93 26.7144 31.4269Z" fill="white"/>
</g>
<defs>
<linearGradient id="paint0_linear_3801_53" x1="34.5" y1="0" x2="34.5" y2="69" gradientUnits="userSpaceOnUse">
<stop stop-color="#E754FF"/>
<stop offset="0.022116" stop-color="#E754FF"/>
<stop offset="1" stop-color="#50EEFF" stop-opacity="0.2"/>
</linearGradient>
<linearGradient id="paint1_linear_3801_53" x1="34.4984" y1="6.46875" x2="34.4984" y2="62.5264" gradientUnits="userSpaceOnUse">
<stop stop-color="#E754FF"/>
<stop offset="0.022116" stop-color="#E754FF"/>
<stop offset="1" stop-color="#50EEFF" stop-opacity="0.2"/>
</linearGradient>
<linearGradient id="paint2_linear_3801_53" x1="34.5" y1="15.8301" x2="34.5" y2="53.1701" gradientUnits="userSpaceOnUse">
<stop stop-color="#E754FF"/>
<stop offset="0.022116" stop-color="#E754FF"/>
<stop offset="1" stop-color="#50EEFF" stop-opacity="0.2"/>
</linearGradient>
<clipPath id="clip0_3801_53">
<rect width="69" height="69" fill="white"/>
</clipPath>
</defs>
</svg>
