<svg width="69" height="69" viewBox="0 0 69 69" fill="none" xmlns="http://www.w3.org/2000/svg">
<g clip-path="url(#clip0_3801_150)">
<path d="M66.8438 41.5349V31.5347C66.8419 30.0814 66.2812 28.6845 65.2777 27.6333C64.2742 26.5822 62.9048 25.9572 61.4531 25.888V21.6268C61.4514 20.1261 60.8545 18.6874 59.7934 17.6263C58.7323 16.5652 57.2936 15.9683 55.793 15.9666H50.9479V11.4352C50.9467 10.7258 50.7594 10.0291 50.4047 9.41468C50.05 8.80029 49.5402 8.28974 48.9264 7.93403L36.5215 0.77258C35.9066 0.418683 35.2095 0.232422 34.5 0.232422C33.7905 0.232422 33.0934 0.418683 32.4785 0.77258L20.0736 7.93403C19.4598 8.28974 18.95 8.80029 18.5953 9.41468C18.2406 10.0291 18.0533 10.7258 18.0521 11.4352V15.9666H5.92969C4.36933 15.9703 2.87299 16.5873 1.76362 17.6846C0.65424 18.7819 0.0207967 20.2714 0 21.8316L0 63.3394C0.00171209 64.84 0.598598 66.2787 1.65971 67.3399C2.72083 68.401 4.15951 68.9978 5.66016 68.9996H61.1836C62.6842 68.9978 64.1229 68.401 65.184 67.3399C66.2451 66.2787 66.842 64.84 66.8438 63.3394V54.4174C67.4351 54.3525 67.9818 54.0721 68.3795 53.6297C68.7772 53.1873 68.9981 52.614 69 52.0191V43.9332C68.9981 43.3383 68.7772 42.7649 68.3795 42.3226C67.9818 41.8802 67.4351 41.5998 66.8438 41.5349ZM50.9479 25.7592V17.5838H55.793C56.8649 17.5849 57.8926 18.0112 58.6505 18.7692C59.4085 19.5272 59.8348 20.5548 59.8359 21.6268V25.8746H50.9414C50.9414 25.8363 50.9479 25.7975 50.9479 25.7592ZM19.6693 11.4352C19.6699 11.0093 19.7822 10.591 19.9951 10.2221C20.2079 9.85322 20.5138 9.5466 20.8822 9.33289L33.2871 2.17253C33.6561 1.96036 34.0743 1.8487 34.5 1.8487C34.9257 1.8487 35.3439 1.96036 35.7129 2.17253L48.1178 9.33397C48.4862 9.54768 48.7921 9.8543 49.0049 10.2232C49.2178 10.5921 49.3301 11.0104 49.3307 11.4363V25.7592C49.3307 25.7975 49.3237 25.8363 49.3215 25.8746H19.6785C19.6785 25.8363 19.6693 25.7975 19.6693 25.7592V11.4352ZM5.92969 17.5838H18.0521V25.7592C18.0521 25.7975 18.0597 25.8363 18.0608 25.8746H5.9367C3.69689 25.901 1.61234 23.8881 1.61719 21.7319C1.66965 20.6203 2.14581 19.571 2.94784 18.7995C3.74988 18.028 4.81689 17.593 5.92969 17.5838ZM1.61719 25.5916C2.1665 26.1791 2.82843 26.6502 3.56357 26.9766C4.29871 27.3031 5.09202 27.4783 5.89627 27.4918H61.1836C62.2555 27.4929 63.2832 27.9192 64.0411 28.6772C64.7991 29.4351 65.2254 30.4628 65.2266 31.5347V32.6193C59.2338 32.6279 21.3388 32.6829 5.39062 32.7099C4.41976 32.7033 3.48814 32.3258 2.7866 31.6546C2.08506 30.9834 1.66669 30.0694 1.61719 29.0998V25.5916ZM65.2266 63.3394C65.2254 64.4113 64.7991 65.439 64.0411 66.197C63.2832 66.9549 62.2555 67.3812 61.1836 67.3824H5.66016C4.58824 67.3812 3.56056 66.9549 2.80261 66.197C2.04465 65.439 1.61833 64.4113 1.61719 63.3394V60.3503C2.17485 60.9382 2.84345 61.4097 3.58439 61.7377C4.32532 62.0657 5.1239 62.2437 5.934 62.2613L65.2266 61.9529V63.3394ZM65.2266 60.3358L5.92969 60.6441C3.96427 60.7029 1.70128 58.8027 1.61988 56.7812V32.7746C2.1127 33.2682 2.69828 33.6595 3.34292 33.926C3.98756 34.1924 4.67854 34.3287 5.37607 34.3271H5.39062C21.3377 34.3001 59.2263 34.2451 65.2266 34.2365V41.5074H57.0749C55.352 41.4881 53.6898 42.1431 52.4432 43.3324C51.1965 44.5218 50.4641 46.1513 50.4023 47.8732C50.3928 48.7302 50.5529 49.5806 50.8733 50.3755C51.1937 51.1704 51.6682 51.8941 52.2695 52.5049C52.8707 53.1157 53.5868 53.6015 54.3765 53.9345C55.1663 54.2674 56.014 54.4409 56.8711 54.4449H65.2266V60.3358ZM67.3828 52.0191C67.3828 52.2335 67.2976 52.4392 67.146 52.5909C66.9943 52.7425 66.7887 52.8277 66.5742 52.8277H56.8711C56.2282 52.8247 55.5923 52.6947 54.9999 52.4449C54.4075 52.1952 53.8703 51.8307 53.4194 51.3725C52.9685 50.9143 52.6126 50.3714 52.3724 49.7751C52.1321 49.1788 52.0122 48.5408 52.0195 47.898C52.0731 46.6001 52.6317 45.3746 53.5761 44.4828C54.5206 43.591 55.7761 43.1036 57.0749 43.1246H66.5742C66.7887 43.1246 66.9943 43.2098 67.146 43.3614C67.2976 43.513 67.3828 43.7187 67.3828 43.9332V52.0191Z" fill="url(#paint0_linear_3801_150)"/>
<path d="M57.6797 45.2812C57.1466 45.2812 56.6255 45.4393 56.1823 45.7355C55.739 46.0317 55.3935 46.4526 55.1895 46.9451C54.9855 47.4376 54.9322 47.9796 55.0362 48.5024C55.1402 49.0252 55.3969 49.5055 55.7738 49.8824C56.1508 50.2594 56.631 50.5161 57.1539 50.6201C57.6767 50.7241 58.2186 50.6707 58.7111 50.4667C59.2036 50.2627 59.6246 49.9172 59.9208 49.474C60.2169 49.0308 60.375 48.5096 60.375 47.9766C60.3741 47.262 60.0899 46.5769 59.5846 46.0716C59.0793 45.5663 58.3943 45.2821 57.6797 45.2812ZM57.6797 49.0547C57.4665 49.0547 57.258 48.9915 57.0807 48.873C56.9034 48.7545 56.7652 48.5861 56.6836 48.3891C56.602 48.1921 56.5807 47.9754 56.6223 47.7662C56.6639 47.5571 56.7666 47.365 56.9173 47.2142C57.0681 47.0634 57.2602 46.9608 57.4694 46.9192C57.6785 46.8776 57.8953 46.8989 58.0923 46.9805C58.2893 47.0621 58.4577 47.2003 58.5761 47.3776C58.6946 47.5549 58.7578 47.7633 58.7578 47.9766C58.7578 48.2625 58.6442 48.5367 58.442 48.7389C58.2399 48.9411 57.9656 49.0547 57.6797 49.0547Z" fill="url(#paint1_linear_3801_150)"/>
<path fill-rule="evenodd" clip-rule="evenodd" d="M34.4867 16.2372C33.5476 14.0222 32.278 12.7765 30.8518 11.99C28.8762 13.1915 27.9109 15.049 28.0374 16.8278C28.3262 20.889 31.0117 22.2386 33.2796 22.7554C31.3513 20.5716 30.3981 17.9039 30.7852 15.3136C32.1683 16.8278 33.3715 18.1807 34.4867 20.2624C35.4906 18.5121 36.661 16.8507 38.1764 15.3691C38.6166 17.9184 37.6277 20.3476 35.7286 22.6999C37.6106 22.3045 40.2445 21.4358 40.8966 17.4004C41.3177 14.7936 39.9196 13.082 38.1201 11.9713C36.1134 13.0975 35.1505 14.6055 34.4867 16.2372Z" fill="white"/>
<path fill-rule="evenodd" clip-rule="evenodd" d="M28.6618 13.5365L28.0226 12.872C27.821 12.6626 27.8832 12.2472 28.0317 11.9947C29.2332 9.96102 31.7097 8.76839 34.5526 8.80963C37.3954 8.85087 39.6002 9.9631 40.9912 12.0318C41.1559 12.2763 41.1494 12.7056 40.9457 12.918L40.3703 13.5181C39.391 12.4685 38.2476 11.8271 37.0001 11.4414C35.7177 13.0852 35.1299 14.9875 34.629 16.84C34.6088 16.9147 34.4613 16.9625 34.4613 16.9625C34.0167 15.0656 33.3488 13.1595 31.9771 11.4592C30.7662 11.7897 29.6291 12.4427 28.6618 13.5365Z" fill="white"/>
</g>
<defs>
<linearGradient id="paint0_linear_3801_150" x1="34.5" y1="0.232422" x2="34.5" y2="68.9996" gradientUnits="userSpaceOnUse">
<stop stop-color="#E754FF"/>
<stop offset="0.022116" stop-color="#E754FF"/>
<stop offset="1" stop-color="#50EEFF" stop-opacity="0.2"/>
</linearGradient>
<linearGradient id="paint1_linear_3801_150" x1="57.6797" y1="45.2812" x2="57.6797" y2="50.6719" gradientUnits="userSpaceOnUse">
<stop stop-color="#E754FF"/>
<stop offset="0.022116" stop-color="#E754FF"/>
<stop offset="1" stop-color="#50EEFF" stop-opacity="0.2"/>
</linearGradient>
<clipPath id="clip0_3801_150">
<rect width="69" height="69" fill="white"/>
</clipPath>
</defs>
</svg>
