<svg width="69" height="69" viewBox="0 0 69 69" fill="none" xmlns="http://www.w3.org/2000/svg">
<path d="M60.1226 69H63.3579C64.0012 68.9993 64.618 68.7424 65.0729 68.2858C65.5278 67.8292 65.7837 67.2101 65.7844 66.5643V60.3398H66.5738C67.0594 60.3398 67.5339 60.1934 67.9357 59.9198C68.3376 59.6461 68.6484 59.2577 68.828 58.8048C69.0076 58.3519 69.0476 57.8553 68.943 57.3793C68.8384 56.9033 68.5938 56.4698 68.2411 56.1348L63.4081 51.5449C62.9575 51.117 62.3608 50.8786 61.7405 50.8786C61.1203 50.8786 60.5236 51.117 60.073 51.5449L55.2395 56.1348C54.8867 56.4698 54.6422 56.9033 54.5375 57.3793C54.4329 57.8553 54.4729 58.3519 54.6525 58.8048C54.8321 59.2577 55.1429 59.6461 55.5448 59.9198C55.9467 60.1934 56.4211 60.3398 56.9067 60.3398H57.6961V66.5643C57.6969 67.2101 57.9527 67.8292 58.4076 68.2858C58.8625 68.7424 59.4793 68.9993 60.1226 69ZM56.9067 58.716C56.7449 58.716 56.5868 58.6672 56.4529 58.576C56.319 58.4848 56.2155 58.3554 56.1556 58.2045C56.0957 58.0536 56.0823 57.8882 56.1171 57.7295C56.1519 57.5709 56.2333 57.4264 56.3508 57.3147L61.1849 52.7243C61.335 52.5818 61.5339 52.5023 61.7405 52.5023C61.9472 52.5023 62.146 52.5818 62.2962 52.7243L67.1297 57.3142C67.2474 57.4258 67.329 57.5704 67.3639 57.7291C67.3988 57.8878 67.3854 58.0534 67.3255 58.2044C67.2657 58.3554 67.162 58.4849 67.028 58.5761C66.8939 58.6674 66.7357 58.7161 66.5738 58.716H64.9756C64.761 58.716 64.5553 58.8016 64.4036 58.9538C64.252 59.1061 64.1667 59.3126 64.1667 59.5279V66.5643C64.1667 66.7797 64.0815 66.9862 63.9298 67.1384C63.7782 67.2907 63.5724 67.3762 63.3579 67.3762H60.1226C59.9081 67.3762 59.7024 67.2907 59.5507 67.1384C59.399 66.9862 59.3138 66.7797 59.3138 66.5643V59.5279C59.3138 59.3126 59.2286 59.1061 59.0769 58.9538C58.9252 58.8016 58.7195 58.716 58.505 58.716H56.9067ZM21.8383 19.7452H25.0736C25.7169 19.7445 26.3336 19.4876 26.7885 19.031C27.2434 18.5744 27.4993 17.9553 27.5 17.3095V9.46124H28.2889C28.7746 9.4613 29.2491 9.31505 29.651 9.04144C30.053 8.76782 30.3639 8.37942 30.5435 7.92649C30.7232 7.47355 30.7633 6.97693 30.6587 6.50087C30.554 6.02481 30.3095 5.59121 29.9567 5.25618L25.1237 0.666286C24.6731 0.238421 24.0764 0 23.4562 0C22.8359 0 22.2392 0.238421 21.7887 0.666286L16.9551 5.25618C16.6023 5.59121 16.3578 6.02481 16.2531 6.50087C16.1485 6.97693 16.1886 7.47355 16.3683 7.92649C16.5479 8.37942 16.8588 8.76782 17.2608 9.04144C17.6627 9.31505 18.1372 9.4613 18.6229 9.46124H19.4118V17.3095C19.4125 17.9553 19.6684 18.5744 20.1233 19.031C20.5782 19.4876 21.1949 19.7445 21.8383 19.7452ZM18.6229 7.83746C18.4611 7.83751 18.3029 7.78881 18.1689 7.69766C18.0349 7.60652 17.9313 7.47711 17.8713 7.32619C17.8114 7.17527 17.798 7.00977 17.8327 6.85109C17.8675 6.69241 17.9489 6.54786 18.0664 6.43613L22.9005 1.84569C23.0507 1.70318 23.2495 1.62377 23.4562 1.62377C23.6628 1.62377 23.8617 1.70318 24.0118 1.84569L28.8454 6.43559C28.9631 6.54729 29.0447 6.69188 29.0796 6.85065C29.1144 7.00942 29.101 7.17505 29.0411 7.32609C28.9811 7.47713 28.8774 7.60662 28.7433 7.69779C28.6092 7.78897 28.4509 7.83762 28.2889 7.83746H26.6912C26.4767 7.83746 26.271 7.923 26.1193 8.07526C25.9676 8.22752 25.8824 8.43402 25.8824 8.64935V17.3095C25.8824 17.5249 25.7972 17.7314 25.6455 17.8836C25.4938 18.0359 25.2881 18.1214 25.0736 18.1214H21.8383C21.6237 18.1214 21.418 18.0359 21.2663 17.8836C21.1146 17.7314 21.0294 17.5249 21.0294 17.3095V8.64935C21.0294 8.43402 20.9442 8.22752 20.7925 8.07526C20.6409 7.923 20.4351 7.83746 20.2206 7.83746H18.6229ZM2.42647 69H10.4069C10.8327 69.0005 11.2511 68.8885 11.6201 68.6752L18.5631 64.6515C18.9314 65.0832 19.4382 65.3722 19.9962 65.4689C20.5541 65.5655 21.1282 65.4636 21.6193 65.1809L27.1485 61.9766C27.6382 61.6909 28.0133 61.2426 28.209 60.709C28.4047 60.1754 28.4087 59.59 28.2204 59.0538L31.9879 56.8703L48.241 57.3959C49.0814 57.3981 49.9139 57.2334 50.6905 56.9111C51.4671 56.5888 52.1726 56.1155 52.7661 55.5183L67.5714 40.7007C67.9997 40.2657 68.3319 39.7451 68.5465 39.1727C68.7611 38.6003 68.8532 37.9889 68.8169 37.3784C68.7805 36.7679 68.6165 36.1719 68.3354 35.6293C68.0544 35.0866 67.6627 34.6095 67.1858 34.2288C66.3306 33.5777 65.2673 33.2638 64.197 33.3467C63.1268 33.4296 62.124 33.9035 61.3785 34.6786L53.6617 42.4241C53.265 41.77 52.7051 41.2312 52.0373 40.861C51.3696 40.4907 50.6171 40.3019 49.8543 40.3131H42.3786L38.2056 37.8001C36.4154 36.7219 30.188 33.4196 25.2143 36.2017L17.6475 40.5859C17.492 40.3013 17.2816 40.0506 17.0285 39.8485C16.7754 39.6465 16.4847 39.4971 16.1734 39.4092C15.8621 39.3213 15.5364 39.2967 15.2155 39.3366C14.8946 39.3766 14.5848 39.4804 14.3043 39.642L8.77574 42.8462C8.49584 43.0092 8.25115 43.2266 8.05601 43.4857C7.86087 43.7448 7.71921 44.0404 7.63931 44.3551C7.55941 44.6699 7.5429 44.9974 7.59073 45.3187C7.63856 45.6399 7.74977 45.9483 7.91785 46.2259L1.21324 50.11C0.844542 50.3243 0.538411 50.6322 0.32549 51.0026C0.112569 51.3731 0.000326882 51.7932 0 52.2209L0 66.5643C0.000713613 67.2101 0.256588 67.8292 0.711486 68.2858C1.16638 68.7424 1.78315 68.9993 2.42647 69ZM26.0123 37.6139C29.3555 35.7449 34.072 37.2047 37.3736 39.1927L41.7386 41.8211C41.8641 41.8968 42.0078 41.9368 42.1543 41.9369H49.8775C50.2316 41.9323 50.583 41.9978 50.9119 42.1296C51.2407 42.2613 51.5405 42.4568 51.7941 42.7049C52.0477 42.953 52.2501 43.2487 52.3898 43.5753C52.5295 43.9019 52.6038 44.2529 52.6084 44.6083C52.6129 44.9637 52.5477 45.3165 52.4165 45.6466C52.2852 45.9767 52.0904 46.2777 51.8433 46.5322C51.5962 46.7867 51.3015 46.9899 50.9762 47.1302C50.6508 47.2704 50.3011 47.345 49.9471 47.3495H42.3285C42.114 47.3495 41.9082 47.4351 41.7566 47.5873C41.6049 47.7396 41.5197 47.9461 41.5197 48.1614C41.5197 48.3768 41.6049 48.5833 41.7566 48.7355C41.9082 48.8878 42.114 48.9733 42.3285 48.9733H49.9471C50.557 48.9732 51.1601 48.8437 51.7167 48.5932C52.2733 48.3427 52.7708 47.9769 53.1767 47.5198C53.5825 47.0628 53.8875 46.5247 54.0717 45.941C54.2558 45.3573 54.3149 44.7411 54.2452 44.1328L62.5205 35.8261C62.9896 35.3385 63.6181 35.0372 64.2907 34.9775C64.9634 34.9179 65.6348 35.1039 66.1818 35.5013C66.481 35.7385 66.727 36.0364 66.9037 36.3756C67.0803 36.7148 67.1836 37.0876 67.2068 37.4696C67.23 37.8516 67.1726 38.2343 67.0383 38.5925C66.9041 38.9507 66.696 39.2764 66.4277 39.5483L51.6224 54.3681C51.1823 54.812 50.6593 55.1645 50.0833 55.4054C49.5073 55.6463 48.8897 55.7709 48.2658 55.7721L31.8078 55.2395C31.6568 55.2344 31.5073 55.2719 31.3765 55.3478L27.4461 57.6254L18.4558 41.9911L26.0123 37.6139ZM9.58241 44.2535L15.111 41.0493C15.2971 40.9426 15.5176 40.914 15.7246 40.9696C15.9316 41.0253 16.1083 41.1607 16.2164 41.3464L26.6373 59.4597C26.7433 59.6465 26.7717 59.8678 26.7161 60.0755C26.6606 60.2831 26.5257 60.4604 26.3407 60.5688L20.8116 63.773C20.6256 63.8795 20.4052 63.9081 20.1983 63.8524C19.9915 63.7968 19.8148 63.6615 19.7067 63.4759L9.28638 45.3631C9.23319 45.2708 9.19866 45.1688 9.18475 45.063C9.17084 44.9573 9.17783 44.8498 9.20532 44.7467C9.23281 44.6437 9.28027 44.5471 9.34497 44.4625C9.40968 44.3778 9.49036 44.3068 9.58241 44.2535ZM1.61765 52.2209C1.61794 52.0784 1.65543 51.9384 1.72638 51.8149C1.79734 51.6915 1.89928 51.5889 2.02206 51.5173L8.72398 47.6332L17.7154 63.2653L10.8102 67.268C10.687 67.3391 10.5474 67.3765 10.4053 67.3762H2.42647C2.21196 67.3762 2.00623 67.2907 1.85455 67.1384C1.70286 66.9862 1.61765 66.7797 1.61765 66.5643V52.2209ZM45.4403 30.1872C46.052 30.5404 46.7453 30.7263 47.451 30.7263C48.1567 30.7263 48.8501 30.5404 49.4618 30.1872L59.1903 24.5489C59.8009 24.1937 60.3079 23.6839 60.6608 23.0704C61.0136 22.457 61.1999 21.7613 61.201 21.0529V9.77734C61.1999 9.06896 61.0136 8.37328 60.6608 7.7598C60.3079 7.14632 59.8009 6.63652 59.1903 6.28133L49.4618 0.643012C48.8501 0.289824 48.1567 0.103945 47.451 0.103945C46.7453 0.103945 46.052 0.289824 45.4403 0.643012L35.7118 6.28133C35.1012 6.63652 34.5941 7.14632 34.2413 7.7598C33.8884 8.37328 33.7021 9.06896 33.701 9.77734V21.0529C33.7021 21.7613 33.8884 22.457 34.2413 23.0704C34.5941 23.6839 35.1012 24.1937 35.7118 24.5489L45.4403 30.1872ZM35.3187 9.77734C35.3193 9.35382 35.4306 8.93788 35.6416 8.57107C35.8525 8.20425 36.1556 7.89941 36.5206 7.68699L46.2491 2.04921C46.6148 1.83817 47.0292 1.7271 47.451 1.7271C47.8728 1.7271 48.2873 1.83817 48.6529 2.04921L58.3815 7.68699C58.7465 7.89941 59.0496 8.20425 59.2605 8.57107C59.4714 8.93788 59.5828 9.35382 59.5834 9.77734V21.0529C59.5828 21.4764 59.4714 21.8924 59.2605 22.2592C59.0496 22.626 58.7465 22.9308 58.3815 23.1432L48.6529 28.781C48.2873 28.9921 47.8728 29.1031 47.451 29.1031C47.0292 29.1031 46.6148 28.9921 46.2491 28.781L36.5206 23.1432C36.1556 22.9308 35.8525 22.626 35.6416 22.2592C35.4306 21.8924 35.3193 21.4764 35.3187 21.0529V9.77734Z" fill="url(#paint0_linear_3801_127)"/>
<path d="M5.93115 34.3585H9.16644C9.80976 34.3578 10.4265 34.1009 10.8814 33.6443C11.3363 33.1877 11.5922 32.5686 11.5929 31.9228V24.0745H12.3818C12.8675 24.0746 13.342 23.9283 13.7439 23.6547C14.1459 23.3811 14.4568 22.9927 14.6364 22.5398C14.8161 22.0868 14.8562 21.5902 14.7516 21.1141C14.6469 20.6381 14.4024 20.2045 14.0496 19.8695L9.21659 15.2796C8.76601 14.8517 8.16931 14.6133 7.54906 14.6133C6.92882 14.6133 6.33212 14.8517 5.88154 15.2796L1.048 19.8695C0.695193 20.2045 0.450658 20.6381 0.346035 21.1141C0.241411 21.5902 0.281514 22.0868 0.461155 22.5398C0.640796 22.9927 0.951708 23.3811 1.35367 23.6547C1.75562 23.9283 2.23013 24.0746 2.7158 24.0745H3.50467V31.9228C3.50539 32.5686 3.76126 33.1877 4.21616 33.6443C4.67106 34.1009 5.28782 34.3578 5.93115 34.3585ZM2.7158 22.4507C2.55394 22.4508 2.39579 22.4021 2.2618 22.3109C2.12781 22.2198 2.02415 22.0904 1.96422 21.9395C1.90429 21.7885 1.89084 21.623 1.92562 21.4644C1.96041 21.3057 2.04182 21.1611 2.15933 21.0494L6.99286 16.4595C7.14306 16.3168 7.342 16.2373 7.54879 16.2373C7.75559 16.2373 7.95452 16.3168 8.10473 16.4595L12.941 21.0494C13.0586 21.1613 13.1401 21.3061 13.1748 21.465C13.2095 21.624 13.1958 21.7897 13.1356 21.9407C13.0753 22.0918 12.9712 22.2211 12.8368 22.3121C12.7024 22.403 12.5439 22.4513 12.3818 22.4507H10.7841C10.5696 22.4507 10.3639 22.5363 10.2122 22.6885C10.0605 22.8408 9.97527 23.0473 9.97527 23.2626V31.9228C9.97527 32.1381 9.89005 32.3446 9.73837 32.4969C9.58668 32.6492 9.38096 32.7347 9.16644 32.7347H5.93115C5.71663 32.7347 5.5109 32.6492 5.35922 32.4969C5.20754 32.3446 5.12232 32.1381 5.12232 31.9228V23.2626C5.12232 23.0473 5.03711 22.8408 4.88542 22.6885C4.73374 22.5363 4.52801 22.4507 4.3135 22.4507H2.7158Z" fill="url(#paint1_linear_3801_127)"/>
<path fill-rule="evenodd" clip-rule="evenodd" d="M47.3449 15.5175C46.4577 13.5276 45.2583 12.4084 43.911 11.7019C42.0445 12.7813 41.1327 14.45 41.2522 16.0481C41.525 19.6966 44.062 20.9091 46.2046 21.3734C44.3828 19.4115 43.4823 17.0148 43.848 14.6878C45.1547 16.0481 46.2913 17.2635 47.3449 19.1337C48.2933 17.5612 49.399 16.0687 50.8307 14.7376C51.2465 17.0279 50.3122 19.2102 48.5182 21.3236C50.2961 20.9683 52.7844 20.1879 53.4004 16.5625C53.7983 14.2206 52.4775 12.683 50.7774 11.6851C48.8816 12.6968 47.972 14.0516 47.3449 15.5175Z" fill="white"/>
<path fill-rule="evenodd" clip-rule="evenodd" d="M41.842 13.0913L41.2382 12.4943C41.0477 12.3061 41.1065 11.9329 41.2468 11.7061C42.3818 9.87908 44.7215 8.80763 47.4071 8.84468C50.0928 8.88173 52.1757 9.88094 53.4898 11.7394C53.6454 11.9591 53.6393 12.3447 53.4469 12.5356L52.9032 13.0747C51.978 12.1318 50.8979 11.5555 49.7193 11.2091C48.5078 12.6858 47.9525 14.3948 47.4793 16.0591C47.4603 16.1261 47.3209 16.1692 47.3209 16.1692C46.9009 14.465 46.2699 12.7525 44.974 11.225C43.8301 11.522 42.7558 12.1086 41.842 13.0913Z" fill="white"/>
<defs>
<linearGradient id="paint0_linear_3801_127" x1="34.5" y1="0" x2="34.5" y2="69" gradientUnits="userSpaceOnUse">
<stop stop-color="#E754FF"/>
<stop offset="0.022116" stop-color="#E754FF"/>
<stop offset="1" stop-color="#50EEFF" stop-opacity="0.2"/>
</linearGradient>
<linearGradient id="paint1_linear_3801_127" x1="7.54879" y1="14.6133" x2="7.54879" y2="34.3585" gradientUnits="userSpaceOnUse">
<stop stop-color="#E754FF"/>
<stop offset="0.022116" stop-color="#E754FF"/>
<stop offset="1" stop-color="#50EEFF" stop-opacity="0.2"/>
</linearGradient>
</defs>
</svg>
