<svg width="401" height="401" viewBox="0 0 401 401" fill="none" xmlns="http://www.w3.org/2000/svg">
<path d="M200.5 9.11369C200.5 4.08037 204.583 -0.0215635 209.611 0.207142C235.468 1.38325 260.883 7.5568 284.441 18.4173C310.762 30.5512 334.139 48.2471 352.961 70.2857C371.784 92.3243 385.605 118.182 393.472 146.076C401.339 173.971 403.065 203.239 398.531 231.865C393.998 260.491 383.312 287.794 367.21 311.892C351.108 335.99 329.973 356.311 305.261 371.454C280.549 386.598 252.848 396.204 224.066 399.61C198.305 402.659 172.226 400.677 147.271 393.805C142.418 392.469 139.803 387.306 141.358 382.519L160.509 323.58C162.064 318.793 167.2 316.209 172.091 317.398C185.984 320.774 200.393 321.652 214.64 319.966C231.909 317.922 248.529 312.159 263.357 303.073C278.184 293.987 290.865 281.794 300.526 267.335C310.187 252.876 316.599 236.495 319.319 219.319C322.039 202.144 321.004 184.582 316.283 167.846C311.563 151.109 303.27 135.595 291.977 122.371C280.683 109.148 266.657 98.5307 250.865 91.2504C237.836 85.2443 223.862 81.6272 209.605 80.5451C204.586 80.1641 200.5 76.1197 200.5 71.0864L200.5 9.11369Z" fill="#D84C4C"/>
</svg>
