<svg width="401" height="401" viewBox="0 0 401 401" fill="none" xmlns="http://www.w3.org/2000/svg">
<path d="M200.5 9.11369C200.5 4.08037 204.583 -0.0215627 209.611 0.207125C243.296 1.73916 276.104 11.7464 304.968 29.3667C336.43 48.5723 361.988 76.079 378.834 108.864C395.681 141.649 403.163 178.444 400.46 215.205C397.757 251.966 384.972 287.27 363.511 317.238C342.049 347.206 312.742 370.678 278.81 385.075C244.877 399.471 207.633 404.235 171.169 398.843C134.706 393.451 100.434 378.111 72.1209 354.51C46.1447 332.857 26.106 305.018 13.8089 273.621C11.9733 268.934 14.542 263.748 19.3073 262.127L77.9792 242.172C82.7444 240.551 87.8893 243.118 89.866 247.746C97.3219 265.206 108.824 280.695 123.473 292.906C140.461 307.067 161.023 316.271 182.902 319.506C204.78 322.741 227.126 319.883 247.486 311.245C267.845 302.607 285.43 288.524 298.306 270.543C311.183 252.562 318.854 231.379 320.476 209.323C322.098 187.266 317.608 165.19 307.501 145.518C297.393 125.847 282.058 109.343 263.181 97.82C246.903 87.8834 228.535 81.9819 209.605 80.5451C204.586 80.1641 200.5 76.1197 200.5 71.0864L200.5 9.11369Z" fill="#650EBA"/>
</svg>
