<svg width="28" height="28" viewBox="0 0 28 28" fill="none" xmlns="http://www.w3.org/2000/svg">
<path d="M9.33203 13.3004C9.33203 14.1987 10.032 14.9337 10.8837 14.9337H12.6337C13.3804 14.9337 13.987 14.2921 13.987 13.5104C13.987 12.6587 13.6137 12.3554 13.0654 12.1571L10.2654 11.1771C9.70536 10.9787 9.33203 10.6754 9.33203 9.82372C9.33203 9.04206 9.9387 8.40039 10.6854 8.40039H12.4354C13.2987 8.41206 13.9987 9.13539 13.9987 10.0337" stroke="white" stroke-width="1.5" stroke-linecap="round" stroke-linejoin="round"/>
<path d="M11.668 14.9917V15.855" stroke="white" stroke-width="1.5" stroke-linecap="round" stroke-linejoin="round"/>
<path d="M11.668 7.47852V8.38852" stroke="white" stroke-width="1.5" stroke-linecap="round" stroke-linejoin="round"/>
<path d="M11.6537 20.9768C16.8019 20.9768 20.9754 16.8034 20.9754 11.6552C20.9754 6.50695 16.8019 2.3335 11.6537 2.3335C6.50548 2.3335 2.33203 6.50695 2.33203 11.6552C2.33203 16.8034 6.50548 20.9768 11.6537 20.9768Z" stroke="white" stroke-width="1.5" stroke-linecap="round" stroke-linejoin="round"/>
<path d="M15.1445 23.1932C16.1945 24.6748 17.9095 25.6432 19.8695 25.6432C23.0545 25.6432 25.6445 23.0532 25.6445 19.8682C25.6445 17.9315 24.6879 16.2165 23.2295 15.1665" stroke="white" stroke-width="1.5" stroke-linecap="round" stroke-linejoin="round"/>
</svg>
