<svg width="28" height="28" viewBox="0 0 28 28" fill="none" xmlns="http://www.w3.org/2000/svg">
<path d="M21.5846 14.7583V19.075C21.5846 22.715 18.1896 25.6666 14.0013 25.6666C9.81297 25.6666 6.41797 22.715 6.41797 19.075V14.7583C6.41797 18.3983 9.81297 21 14.0013 21C18.1896 21 21.5846 18.3983 21.5846 14.7583Z" stroke="white" stroke-width="1.5" stroke-linecap="round" stroke-linejoin="round"/>
<path d="M21.5846 8.92516C21.5846 9.98683 21.293 10.9668 20.7796 11.8068C19.5313 13.8602 16.9646 15.1668 14.0013 15.1668C11.038 15.1668 8.47131 13.8602 7.22297 11.8068C6.70964 10.9668 6.41797 9.98683 6.41797 8.92516C6.41797 7.10516 7.26963 5.46016 8.63463 4.27016C10.0113 3.0685 11.9013 2.3335 14.0013 2.3335C16.1013 2.3335 17.9913 3.0685 19.368 4.2585C20.733 5.46016 21.5846 7.10516 21.5846 8.92516Z" stroke="white" stroke-width="1.5" stroke-linecap="round" stroke-linejoin="round"/>
<path d="M21.5846 8.92516V14.7585C21.5846 18.3985 18.1896 21.0002 14.0013 21.0002C9.81297 21.0002 6.41797 18.3985 6.41797 14.7585V8.92516C6.41797 5.28516 9.81297 2.3335 14.0013 2.3335C16.1013 2.3335 17.9913 3.0685 19.368 4.2585C20.733 5.46016 21.5846 7.10516 21.5846 8.92516Z" stroke="white" stroke-width="1.5" stroke-linecap="round" stroke-linejoin="round"/>
</svg>
