<svg width="21" height="14" viewBox="0 0 21 14" fill="none" xmlns="http://www.w3.org/2000/svg">
<path id="Vector" d="M8.5 10L13.69 7L8.5 4V10ZM20.06 2.17C20.19 2.64 20.28 3.27 20.34 4.07C20.41 4.87 20.44 5.56 20.44 6.16L20.5 7C20.5 9.19 20.34 10.8 20.06 11.83C19.81 12.73 19.23 13.31 18.33 13.56C17.86 13.69 17 13.78 15.68 13.84C14.38 13.91 13.19 13.94 12.09 13.94L10.5 14C6.31 14 3.7 13.84 2.67 13.56C1.77 13.31 1.19 12.73 0.94 11.83C0.81 11.36 0.72 10.73 0.66 9.93C0.59 9.13 0.56 8.44 0.56 7.84L0.5 7C0.5 4.81 0.66 3.2 0.94 2.17C1.19 1.27 1.77 0.69 2.67 0.44C3.14 0.31 4 0.22 5.32 0.16C6.62 0.0899998 7.81 0.0599999 8.91 0.0599999L10.5 0C14.69 0 17.3 0.16 18.33 0.44C19.23 0.69 19.81 1.27 20.06 2.17Z" fill="#FCFCFC"/>
</svg>
