<svg width="1920" height="1080" viewBox="0 0 1920 1080" fill="none" xmlns="http://www.w3.org/2000/svg">
<g filter="url(#filter0_f_4001_322)">
<path d="M1838.45 1183.91C1726.95 1191.53 1486.42 948.275 1478.8 836.775C1471.17 725.275 1670.63 864.266 1782.13 856.64C1893.63 849.015 2071.89 724.809 2079.51 836.309C2087.14 947.809 1949.95 1176.28 1838.45 1183.91Z" fill="#00D7EE" fill-opacity="0.4"/>
</g>
<g filter="url(#filter1_f_4001_322)">
<path d="M1683.32 645.295C1707.56 568.163 1934.85 470.21 2011.98 494.456C2089.11 518.702 2032.49 630.723 2008.24 707.856C1983.99 784.988 1931.12 923.555 1853.99 899.309C1776.85 875.063 1659.07 722.427 1683.32 645.295Z" fill="#D146FF" fill-opacity="0.3"/>
</g>
<g opacity="0.2">
<path fill-rule="evenodd" clip-rule="evenodd" d="M-67.4708 233.324C-107.73 178.663 -141.305 117.617 -167.646 53.2478L-161.861 46.4135C-135.512 111.551 -101.698 173.349 -61.0065 228.626C60.5265 393.748 238.235 513.055 515.159 615.494C760.695 706.292 993.269 769.91 1206.46 804.564C1381.6 833.035 1548.53 826.367 1725.27 819.298C1771 817.496 1818.28 815.6 1865.33 814.404C1914.12 813.128 1963.74 812.736 2011.73 812.354C2078.89 811.835 2148.32 811.242 2216.51 808.392C2229.67 807.793 2243.33 807.408 2257.3 806.997C2345.61 804.348 2445.67 801.331 2518.45 758.967C2538.35 747.361 2555.71 732.984 2569.99 716.112L2570.02 716.08C2671.9 595.591 2604.22 369.195 2570.38 277.447C2509.37 112.031 2423.4 -44.6839 2336.39 -196.382L2354.25 -181.259C2437.66 -35.2079 2519.23 115.648 2577.92 274.731C2620.55 390.343 2676.99 602.083 2576.12 721.248L2576.1 721.28C2561.24 738.831 2543.22 753.865 2522.56 765.9C2447.99 809.297 2346.86 812.315 2257.62 814.985C2243.66 815.421 2230.04 815.83 2216.9 816.396C2148.58 819.291 2079.1 819.832 2011.88 820.41C1963.91 820.763 1914.33 821.174 1865.58 822.401C1818.62 823.611 1771.34 825.508 1725.65 827.333C1548.5 834.411 1381.17 841.109 1205.25 812.482C991.533 777.732 758.452 713.989 512.404 623.016C233.943 519.996 55.0904 399.816 -67.4708 233.324Z" fill="#091F46"/>
<path fill-rule="evenodd" clip-rule="evenodd" d="M1652.75 -775.025C1644.14 -775.19 1635.37 -774.984 1626.39 -774.236C1519.56 -765.23 1420.59 -719.286 1324.89 -674.857C1311.61 -668.742 1298.35 -662.563 1285.1 -656.527C1118.49 -580.509 894.557 -488.749 639.755 -453.394C595.894 -447.319 549.795 -443.943 501.014 -440.411C402.023 -433.155 300.875 -425.745 211.924 -395.193L221.887 -406.965C308.567 -434.355 405.437 -441.458 500.375 -448.372C549.022 -451.926 594.984 -455.314 638.598 -461.344C892.418 -496.562 1115.63 -588.071 1281.73 -663.85C1294.96 -669.859 1308.2 -676.009 1321.47 -682.182C1417.81 -726.883 1517.42 -773.095 1625.67 -782.224C1631.61 -782.739 1637.46 -782.978 1643.27 -783.055L1652.75 -775.025Z" fill="#091F46"/>
<path fill-rule="evenodd" clip-rule="evenodd" d="M41.8352 166.631C-6.06361 87.4902 -36.4824 -12.9669 -30.0431 -109.323L-21.0632 -119.932C-30.7052 -21.9583 -0.280395 81.5536 48.6806 162.506C136.194 307.219 283.602 421.769 499.321 512.766C700.075 597.401 934.515 661.834 1177.32 699.017C1391.17 731.782 1593.26 714.978 1830.89 679.679C1841.47 678.116 1852.47 676.543 1863.84 674.881C2016.07 652.939 2224.58 622.9 2323.81 505.663L2323.84 505.631C2339.54 487.083 2352.05 466.656 2361.04 444.967C2422.46 296.584 2361.49 129.537 2286.44 -28.9292C2215 -179.771 2123.62 -320.735 2028.85 -456.693L2052.43 -436.727C2141.28 -308.081 2226.28 -174.651 2293.7 -32.2902C2369.52 127.793 2431.07 296.802 2368.47 448.097C2359.15 470.526 2346.23 491.626 2329.98 510.825C2329.95 510.856 2329.95 510.856 2329.95 510.856C2228.76 630.407 2018.54 660.719 1865.05 682.818C1853.67 684.479 1842.68 686.059 1832.16 687.618C1593.76 723.032 1390.98 739.866 1176.16 706.943C932.712 669.669 697.602 605.077 496.244 520.131C278.875 428.495 130.211 312.836 41.8352 166.631Z" fill="#091F46"/>
<path fill-rule="evenodd" clip-rule="evenodd" d="M267.423 -126.284C326.862 -196.507 435.21 -248.117 589.439 -279.691C819.227 -326.723 1041.94 -395.359 1248.39 -462.506C1260.8 -466.541 1273.32 -470.69 1285.85 -474.868C1366.68 -501.832 1450.27 -529.65 1535.5 -531.428C1655.12 -533.887 1756.68 -473.802 1820.79 -422.939C1838.5 -408.86 1857.25 -392.741 1878.06 -373.603C2017.21 -212.405 2147.63 -34.3461 2157.41 172.85C2160.88 247.316 2139.15 312.864 2092.8 367.627L2092.77 367.656C2007.36 468.568 1854.22 516.875 1746.43 544.456C1385.21 636.922 968.804 589.04 574.009 409.678C435.514 346.747 247.935 243.179 217.946 70.9833C204.679 -5.42652 221.297 -71.7882 267.423 -126.284ZM2098.91 372.846L2098.93 372.817C2146.64 316.451 2169.01 249.065 2165.39 172.54C2155.53 -37.129 2024.22 -216.537 1883.79 -379.17C1862.5 -398.771 1843.61 -415.011 1825.74 -429.219C1760.57 -480.876 1657.28 -541.967 1535.27 -539.449C1448.86 -537.657 1364.66 -509.593 1283.24 -482.472C1270.73 -478.318 1258.26 -474.174 1245.85 -470.135C1039.62 -403.066 817.177 -334.509 587.746 -287.529C431.749 -255.614 321.885 -203.114 261.266 -131.495C213.558 -75.1314 196.331 -6.54474 210.017 72.2978C240.679 248.274 430.554 353.273 570.733 416.971C967.163 597.105 1385.45 645.158 1748.48 552.241C1857.3 524.413 2012.04 475.474 2098.91 372.846Z" fill="#091F46"/>
<path opacity="0.8" fill-rule="evenodd" clip-rule="evenodd" d="M1814.08 -174.634C1876.44 -101.713 1974.08 39.5877 1933.6 172.584C1922.44 209.253 1903.86 243.091 1878.36 273.214C1809.27 354.841 1688.32 412.202 1518.83 443.678C1244.38 494.698 903.492 426.191 650.321 269.187C571.04 220.032 479.647 143.433 494.22 57.5031C498.772 30.746 510.83 5.62711 530.134 -17.1805C596.069 -95.0783 735.766 -135.197 828.188 -161.742C838.597 -164.726 848.494 -167.586 857.769 -170.313C910.922 -186.023 964.389 -203.496 1016.09 -220.434C1120.82 -254.723 1229.07 -290.135 1338.72 -311.861C1417.41 -327.467 1496.75 -328.643 1588.35 -315.665C1670.5 -303.996 1735.82 -245.143 1798.98 -188.22C1804.04 -183.69 1809.07 -179.119 1814.08 -174.634ZM1902.97 294.045L1903 294.014C1931.24 260.586 1951.93 222.934 1964.34 182.086C2009.43 33.9749 1904.37 -118.545 1837.71 -196.264L1836.21 -197.785C1830.98 -202.474 1825.71 -207.183 1820.41 -211.973C1756.74 -269.367 1684.57 -334.375 1592.68 -347.435C1497.36 -360.959 1414.62 -359.67 1332.28 -343.346C1220.74 -321.241 1111.54 -285.505 1005.93 -250.951C954.41 -234.109 901.156 -216.652 848.484 -201.097C839.267 -198.37 829.454 -195.549 819.125 -192.597C722.992 -164.969 577.728 -123.262 505.55 -37.9879C482.514 -10.7716 468.044 19.4809 462.533 51.9361C448.44 135.074 505.972 217.316 633.476 296.419C893.126 457.42 1243.05 527.63 1524.92 475.217C1701.82 442.387 1829.02 381.423 1902.97 294.045Z" fill="#091F46"/>
<path fill-rule="evenodd" clip-rule="evenodd" d="M947.38 52.7113C997.946 -7.03018 1108.93 -53.2908 1150.75 -70.7326C1250.18 -112.182 1497.4 -191.084 1644.55 -28.5976C1706.85 62.2566 1675.58 133.858 1638.33 177.872C1602.79 219.921 1544.57 256.205 1478.58 277.469C1393.36 304.941 1298.53 310.181 1204.31 292.598C1155.76 283.538 992.799 246.571 933.735 151.483C914.091 119.855 918.673 86.6267 947.38 52.7113ZM1644.48 183.085C1683.54 136.936 1716.32 61.9379 1650.81 -33.5208C1499.88 -200.265 1248.63 -120.247 1147.59 -78.1187C1105.34 -60.5069 993.065 -13.6974 941.246 47.5242C910.034 84.3998 905.211 120.786 926.896 155.715C987.709 253.604 1153.54 291.264 1202.87 300.488C1298.4 318.316 1394.6 313.014 1481.11 285.115C1548.44 263.401 1607.98 226.208 1644.48 183.085Z" fill="#091F46"/>
</g>
<g filter="url(#filter2_f_4001_322)">
<path d="M132.109 127.979C241.361 242.178 194.963 723.712 80.7646 832.964C-33.4342 942.215 -63.0949 599.709 -172.346 485.51C-281.598 371.311 -577.922 290.177 -463.723 180.926C-349.525 71.6743 22.8574 13.7805 132.109 127.979Z" fill="#00D7EE" fill-opacity="0.4"/>
</g>
<g filter="url(#filter3_f_4001_322)">
<path d="M650.189 3.79642C638.925 161.437 250.942 450.395 93.3017 439.131C-64.3383 427.867 -7.25916 189.247 4.00478 31.6072C15.2687 -126.033 53.225 -413.441 210.865 -402.177C368.505 -390.913 661.452 -153.844 650.189 3.79642Z" fill="#D146FF" fill-opacity="0.3"/>
</g>
<defs>
<filter id="filter0_f_4001_322" x="1201.28" y="512.769" width="1155.83" height="948.615" filterUnits="userSpaceOnUse" color-interpolation-filters="sRGB">
<feFlood flood-opacity="0" result="BackgroundImageFix"/>
<feBlend mode="normal" in="SourceGraphic" in2="BackgroundImageFix" result="shape"/>
<feGaussianBlur stdDeviation="138.65" result="effect1_foregroundBlur_4001_322"/>
</filter>
<filter id="filter1_f_4001_322" x="1486.29" y="296.895" width="758.593" height="799.023" filterUnits="userSpaceOnUse" color-interpolation-filters="sRGB">
<feFlood flood-opacity="0" result="BackgroundImageFix"/>
<feBlend mode="normal" in="SourceGraphic" in2="BackgroundImageFix" result="shape"/>
<feGaussianBlur stdDeviation="96.9" result="effect1_foregroundBlur_4001_322"/>
</filter>
<filter id="filter2_f_4001_322" x="-683.267" y="-128.086" width="1071.2" height="1176.07" filterUnits="userSpaceOnUse" color-interpolation-filters="sRGB">
<feFlood flood-opacity="0" result="BackgroundImageFix"/>
<feBlend mode="normal" in="SourceGraphic" in2="BackgroundImageFix" result="shape"/>
<feGaussianBlur stdDeviation="96.9" result="effect1_foregroundBlur_4001_322"/>
</filter>
<filter id="filter3_f_4001_322" x="-302.594" y="-689.799" width="1240.4" height="1416.55" filterUnits="userSpaceOnUse" color-interpolation-filters="sRGB">
<feFlood flood-opacity="0" result="BackgroundImageFix"/>
<feBlend mode="normal" in="SourceGraphic" in2="BackgroundImageFix" result="shape"/>
<feGaussianBlur stdDeviation="143.65" result="effect1_foregroundBlur_4001_322"/>
</filter>
</defs>
</svg>
