<svg width="28" height="28" viewBox="0 0 28 28" fill="none" xmlns="http://www.w3.org/2000/svg">
<path d="M20.9978 8.3535C20.9278 8.34183 20.8461 8.34183 20.7761 8.3535C19.1661 8.29517 17.8828 6.97683 17.8828 5.3435C17.8828 3.67516 19.2245 2.3335 20.8928 2.3335C22.5611 2.3335 23.9028 3.68683 23.9028 5.3435C23.8911 6.97683 22.6078 8.29517 20.9978 8.3535Z" stroke="white" stroke-width="1.5" stroke-linecap="round" stroke-linejoin="round"/>
<path d="M19.7967 16.847C21.3951 17.1154 23.1567 16.8353 24.3934 16.007C26.0384 14.9103 26.0384 13.1137 24.3934 12.017C23.1451 11.1887 21.3601 10.9087 19.7617 11.1887" stroke="white" stroke-width="1.5" stroke-linecap="round" stroke-linejoin="round"/>
<path d="M6.9675 8.35301C7.0375 8.34135 7.11917 8.34135 7.18917 8.35301C8.79917 8.29468 10.0825 6.97634 10.0825 5.34301C10.0825 3.67468 8.74084 2.33301 7.0725 2.33301C5.40417 2.33301 4.0625 3.68634 4.0625 5.34301C4.07417 6.97634 5.3575 8.29468 6.9675 8.35301Z" stroke="white" stroke-width="1.5" stroke-linecap="round" stroke-linejoin="round"/>
<path d="M8.17026 16.8465C6.57193 17.1149 4.81026 16.8349 3.57359 16.0065C1.92859 14.9099 1.92859 13.1132 3.57359 12.0165C4.82193 11.1882 6.60692 10.9082 8.20526 11.1882" stroke="white" stroke-width="1.5" stroke-linecap="round" stroke-linejoin="round"/>
<path d="M13.9939 17.0683C13.9239 17.0567 13.8422 17.0567 13.7722 17.0683C12.1622 17.01 10.8789 15.6917 10.8789 14.0583C10.8789 12.39 12.2206 11.0483 13.8889 11.0483C15.5572 11.0483 16.8989 12.4017 16.8989 14.0583C16.8872 15.6917 15.6039 17.0217 13.9939 17.0683Z" stroke="white" stroke-width="1.5" stroke-linecap="round" stroke-linejoin="round"/>
<path d="M10.6009 20.7434C8.95594 21.8401 8.95594 23.6367 10.6009 24.7334C12.4676 25.9817 15.5243 25.9817 17.3909 24.7334C19.0359 23.6367 19.0359 21.8401 17.3909 20.7434C15.5359 19.5068 12.4676 19.5068 10.6009 20.7434Z" stroke="white" stroke-width="1.5" stroke-linecap="round" stroke-linejoin="round"/>
</svg>
