<svg width="23" height="17" viewBox="0 0 23 17" fill="none" xmlns="http://www.w3.org/2000/svg">
<path d="M19.403 1.4439C17.9387 0.778409 16.3923 0.306726 14.8037 0.0410156C14.5863 0.423137 14.3911 0.817173 14.2189 1.22122C12.5299 0.976295 10.8138 0.976295 9.12473 1.22122C8.9673 0.853799 8.73114 0.38617 8.53997 0.0410156C6.94285 0.301593 5.38832 0.773442 3.91812 1.4439C1.32786 5.07935 0.16083 9.52318 0.63446 13.9474C2.3363 15.1859 4.2373 16.1308 6.25716 16.742C6.71571 16.137 7.11842 15.4923 7.46041 14.8159C6.80367 14.5742 6.17118 14.2722 5.57119 13.914L6.03225 13.5577C7.79021 14.3805 9.71049 14.8072 11.6549 14.8072C13.5994 14.8072 15.5197 14.3805 17.2776 13.5577C17.4351 13.6802 17.5813 13.8027 17.75 13.914C17.141 14.2702 16.5012 14.572 15.8382 14.8159C16.1913 15.4934 16.6053 16.1381 17.0752 16.742C19.0951 16.1308 20.9961 15.1859 22.6979 13.9474C23.1673 9.52188 21.9963 5.07828 19.403 1.4439ZM7.9777 11.4645C7.69843 11.4489 7.42503 11.3788 7.17316 11.2584C6.92129 11.1379 6.69591 10.9694 6.50995 10.7626C6.32399 10.5557 6.1811 10.3145 6.08947 10.0528C5.99785 9.79116 5.9593 9.51416 5.97602 9.23772C5.95778 8.96094 5.99527 8.68334 6.08632 8.42103C6.17737 8.15873 6.32017 7.91695 6.50642 7.70976C6.69266 7.50257 6.91864 7.3341 7.17121 7.21412C7.42379 7.09415 7.69793 7.02508 7.9777 7.01091C8.25798 7.02359 8.53287 7.09167 8.78617 7.21115C9.03947 7.33063 9.26605 7.49908 9.45259 7.70659C9.63912 7.91411 9.78183 8.15648 9.8723 8.41943C9.96277 8.68239 9.99918 8.96061 9.97938 9.23772C10.0009 9.78856 9.80329 10.3258 9.42897 10.7339C9.05466 11.1419 8.53356 11.3883 7.9777 11.42V11.4645ZM15.3659 11.4645C14.803 11.4301 14.2766 11.1767 13.9016 10.7595C13.5267 10.3424 13.3335 9.79532 13.3642 9.23772C13.3475 8.96127 13.3861 8.68427 13.4777 8.4226C13.5693 8.16094 13.7122 7.91975 13.8982 7.71287C14.0841 7.506 14.3095 7.3375 14.5614 7.21704C14.8133 7.09658 15.0867 7.02654 15.3659 7.01091C15.6462 7.02359 15.9211 7.09167 16.1744 7.21115C16.4277 7.33063 16.6543 7.49908 16.8408 7.70659C17.0273 7.91411 17.1701 8.15648 17.2605 8.41943C17.351 8.68239 17.3874 8.96061 17.3676 9.23772C17.3921 9.78932 17.1955 10.3282 16.8206 10.7369C16.4457 11.1456 15.9228 11.3911 15.3659 11.42V11.4645Z" fill="white"/>
</svg>
